# xmcd
#
# Track frame offsets:
#	150
#	18919
#	37234
#	51459
#	74920
#	91802
#	115199
#	129437
#	137909
#	154168
#	169638
#	186535
#	210601
#	223795
#	236794
#	253027
#	261992
#	275750
#	293956
#	311387
#
# Disc length: 4376 seconds
#
# Revision: 0
# Processed by: cddbd v1.5.2PL0 Copyright (c) Steve Scherf et al.
# Submitted via: EasyCDDAExtractor 12.0.4.1
#
DISCID=45111614
DTITLE=Fonográf - Használat előtt felrázandó
DYEAR=2001
DGENRE=
TTITLE0=Használat előtt felrázandó
TTITLE1=I.M. Elvis Presley
TTITLE2=Hol az a lány?
TTITLE3=Ébredj, alvóbaba
TTITLE4=A kenguru
TTITLE5=Moja Kochanka
TTITLE6=Feltámadt a szél
TTITLE7=Amatőr sportolók dala
TTITLE8=Tigrisugrás
TTITLE9=Hidd el, ez Ő
TTITLE10=Rám vár az élet
TTITLE11=Minden rendben van
TTITLE12=Karácsonyi dal
TTITLE13=Az ősember
TTITLE14=Hát eladtuk végül a házunk
TTITLE15=Greyhound (Levél a távolból)
TTITLE16=Brand New Day (A széllel szemben)
TTITLE17=Under The Moonlight (Vidéki kislány)
TTITLE18=Lonesome Once Again (Mondd, hogy nem haragszol rám)
TTITLE19=Silver Dancer (Hunyd le a szemed)
EXTD=
EXTT0=
EXTT1=
EXTT2=
EXTT3=
EXTT4=
EXTT5=
EXTT6=
EXTT7=
EXTT8=
EXTT9=
EXTT10=
EXTT11=
EXTT12=
EXTT13=
EXTT14=
EXTT15=
EXTT16=
EXTT17=
EXTT18=
EXTT19=
PLAYORDER=
